# xmcd
#
# Track frame offsets:
#	150
#	12050
#	28150
#	48225
#	61700
#	79645
#	96812
#	115047
#	125912
#	144005
#	157580
#	172687
#
# Disc length: 2556 seconds
#
# Revision: 0
# Processed by: cddbd v1.5.2PL0 Copyright (c) Steve Scherf et al.
# Submitted via: EasyCDDAExtractor 10.2.0.1
#
DISCID=7e09fa0c
DTITLE=The Babcocks - Journey
DYEAR=1997
DGENRE=Gospel
TTITLE0=Let The Church Roll On
TTITLE1=Today I Prayed For You
TTITLE2=Have You Knelt At The Foot Of The Cross
TTITLE3=You Must Be Born Again
TTITLE4=My Sins Were The Nails In His Hands
TTITLE5=Here I Am
TTITLE6=This House Of God
TTITLE7=Barnabas
TTITLE8=Tomorrow Is Safe In God's Hands
TTITLE9=The Good That Only Love Can See
TTITLE10=God Does Not Change
TTITLE11=Swing Low Sweet Chariot
EXTD=
EXTT0=
EXTT1=
EXTT2=
EXTT3=
EXTT4=
EXTT5=
EXTT6=
EXTT7=
EXTT8=
EXTT9=
EXTT10=
EXTT11=
PLAYORDER=
